<?xml version="1.0" encoding="UTF-8" standalone="no"?>
<!DOCTYPE svg PUBLIC "-//W3C//DTD SVG 1.1//EN"
 "http://www.w3.org/Graphics/SVG/1.1/DTD/svg11.dtd">
<!-- Generated by graphviz version 2.26.3 (20100126.1600)
 -->
<!-- Title: controllers_diagram Pages: 1 -->
<svg width="1112pt" height="963pt"
 viewBox="0.00 0.00 1112.00 963.17" xmlns="http://www.w3.org/2000/svg" xmlns:xlink="http://www.w3.org/1999/xlink">
<g id="graph1" class="graph" transform="scale(1 1) rotate(0) translate(4 959.172)">
<title>controllers_diagram</title>
<polygon fill="white" stroke="white" points="-4,5 -4,-959.172 1109,-959.172 1109,5 -4,5"/>
<!-- _diagram_info -->
<g id="node1" class="node"><title>_diagram_info</title>
<text text-anchor="start" x="861" y="-149.3" font-family="Times Roman,serif" font-size="13.00">Controllers diagram</text>
<text text-anchor="start" x="861" y="-132.3" font-family="Times Roman,serif" font-size="13.00">Date: May 23 2013 &#45; 15:17</text>
<text text-anchor="start" x="861" y="-115.3" font-family="Times Roman,serif" font-size="13.00">Migration version: 20121106110101</text>
<text text-anchor="start" x="861" y="-98.3" font-family="Times Roman,serif" font-size="13.00">Generated by RailRoady 1.1.0</text>
<text text-anchor="start" x="861" y="-81.3" font-family="Times Roman,serif" font-size="13.00">http://railroady.prestonlee.com</text>
</g>
<!-- CoursObjectsController -->
<g id="node2" class="node"><title>CoursObjectsController</title>
<polyline fill="none" stroke="black" points="24.2066,-352.65 176.207,-352.65 "/>
<path fill="none" stroke="black" d="M176.207,-352.65C182.207,-352.65 188.207,-358.65 188.207,-364.65"/>
<polyline fill="none" stroke="black" points="188.207,-364.65 188.207,-568.65 "/>
<path fill="none" stroke="black" d="M188.207,-568.65C188.207,-574.65 182.207,-580.65 176.207,-580.65"/>
<polyline fill="none" stroke="black" points="176.207,-580.65 24.2066,-580.65 "/>
<path fill="none" stroke="black" d="M24.2066,-580.65C18.2066,-580.65 12.2066,-574.65 12.2066,-568.65"/>
<polyline fill="none" stroke="black" points="12.2066,-568.65 12.2066,-364.65 "/>
<path fill="none" stroke="black" d="M12.2066,-364.65C12.2066,-358.65 18.2066,-352.65 24.2066,-352.65"/>
<text text-anchor="middle" x="100.207" y="-564.05" font-family="Times Roman,serif" font-size="14.00">CoursObjectsController</text>
<polyline fill="none" stroke="black" points="12.2066,-554.65 188.207,-554.65 "/>
<text text-anchor="start" x="20.2066" y="-538.05" font-family="Times Roman,serif" font-size="14.00">create</text>
<text text-anchor="start" x="20.2066" y="-520.05" font-family="Times Roman,serif" font-size="14.00">destroy</text>
<text text-anchor="start" x="20.2066" y="-502.05" font-family="Times Roman,serif" font-size="14.00">edit</text>
<text text-anchor="start" x="20.2066" y="-484.05" font-family="Times Roman,serif" font-size="14.00">index</text>
<text text-anchor="start" x="20.2066" y="-466.05" font-family="Times Roman,serif" font-size="14.00">new</text>
<text text-anchor="start" x="20.2066" y="-448.05" font-family="Times Roman,serif" font-size="14.00">restricted_index</text>
<text text-anchor="start" x="20.2066" y="-430.05" font-family="Times Roman,serif" font-size="14.00">show</text>
<text text-anchor="start" x="20.2066" y="-412.05" font-family="Times Roman,serif" font-size="14.00">update</text>
<polyline fill="none" stroke="black" points="12.2066,-402.65 188.207,-402.65 "/>
<polyline fill="none" stroke="black" points="12.2066,-378.65 188.207,-378.65 "/>
<text text-anchor="start" x="20.2066" y="-362.05" font-family="Times Roman,serif" font-size="14.00">_layout</text>
</g>
<!-- CreatorsController -->
<g id="node3" class="node"><title>CreatorsController</title>
<polyline fill="none" stroke="black" points="596.213,-545.672 813.213,-545.672 "/>
<path fill="none" stroke="black" d="M813.213,-545.672C819.213,-545.672 825.213,-551.672 825.213,-557.672"/>
<polyline fill="none" stroke="black" points="825.213,-557.672 825.213,-941.672 "/>
<path fill="none" stroke="black" d="M825.213,-941.672C825.213,-947.672 819.213,-953.672 813.213,-953.672"/>
<polyline fill="none" stroke="black" points="813.213,-953.672 596.213,-953.672 "/>
<path fill="none" stroke="black" d="M596.213,-953.672C590.213,-953.672 584.213,-947.672 584.213,-941.672"/>
<polyline fill="none" stroke="black" points="584.213,-941.672 584.213,-557.672 "/>
<path fill="none" stroke="black" d="M584.213,-557.672C584.213,-551.672 590.213,-545.672 596.213,-545.672"/>
<text text-anchor="middle" x="704.713" y="-937.072" font-family="Times Roman,serif" font-size="14.00">CreatorsController</text>
<polyline fill="none" stroke="black" points="584.213,-927.672 825.213,-927.672 "/>
<text text-anchor="start" x="592.213" y="-911.072" font-family="Times Roman,serif" font-size="14.00">create</text>
<text text-anchor="start" x="592.213" y="-893.072" font-family="Times Roman,serif" font-size="14.00">edit_module</text>
<text text-anchor="start" x="592.213" y="-875.072" font-family="Times Roman,serif" font-size="14.00">index</text>
<text text-anchor="start" x="592.213" y="-857.072" font-family="Times Roman,serif" font-size="14.00">initialize_tree</text>
<text text-anchor="start" x="592.213" y="-839.072" font-family="Times Roman,serif" font-size="14.00">new_module</text>
<text text-anchor="start" x="592.213" y="-821.072" font-family="Times Roman,serif" font-size="14.00">remove</text>
<text text-anchor="start" x="592.213" y="-803.072" font-family="Times Roman,serif" font-size="14.00">save_all</text>
<text text-anchor="start" x="592.213" y="-785.072" font-family="Times Roman,serif" font-size="14.00">update</text>
<text text-anchor="start" x="592.213" y="-767.072" font-family="Times Roman,serif" font-size="14.00">update_all</text>
<polyline fill="none" stroke="black" points="584.213,-757.672 825.213,-757.672 "/>
<polyline fill="none" stroke="black" points="584.213,-733.672 825.213,-733.672 "/>
<text text-anchor="start" x="592.213" y="-717.072" font-family="Times Roman,serif" font-size="14.00">_layout</text>
<text text-anchor="start" x="592.213" y="-699.072" font-family="Times Roman,serif" font-size="14.00">add_existing_ensemble_as_roots</text>
<text text-anchor="start" x="592.213" y="-681.072" font-family="Times Roman,serif" font-size="14.00">add_existing_module_to_tree</text>
<text text-anchor="start" x="592.213" y="-663.072" font-family="Times Roman,serif" font-size="14.00">add_new_ensemble_as_roots</text>
<text text-anchor="start" x="592.213" y="-645.072" font-family="Times Roman,serif" font-size="14.00">add_new_module_to_tree</text>
<text text-anchor="start" x="592.213" y="-627.072" font-family="Times Roman,serif" font-size="14.00">add_node_as_content</text>
<text text-anchor="start" x="592.213" y="-609.072" font-family="Times Roman,serif" font-size="14.00">include_report</text>
<text text-anchor="start" x="592.213" y="-591.072" font-family="Times Roman,serif" font-size="14.00">remove_existing_version</text>
<text text-anchor="start" x="592.213" y="-573.072" font-family="Times Roman,serif" font-size="14.00">update_global_report</text>
<text text-anchor="start" x="592.213" y="-555.072" font-family="Times Roman,serif" font-size="14.00">update_global_report_for_all</text>
</g>
<!-- ContrainteObjectsController -->
<g id="node4" class="node"><title>ContrainteObjectsController</title>
<polyline fill="none" stroke="black" points="571.631,-1.5 758.631,-1.5 "/>
<path fill="none" stroke="black" d="M758.631,-1.5C764.631,-1.5 770.631,-7.5 770.631,-13.5"/>
<polyline fill="none" stroke="black" points="770.631,-13.5 770.631,-199.5 "/>
<path fill="none" stroke="black" d="M770.631,-199.5C770.631,-205.5 764.631,-211.5 758.631,-211.5"/>
<polyline fill="none" stroke="black" points="758.631,-211.5 571.631,-211.5 "/>
<path fill="none" stroke="black" d="M571.631,-211.5C565.631,-211.5 559.631,-205.5 559.631,-199.5"/>
<polyline fill="none" stroke="black" points="559.631,-199.5 559.631,-13.5 "/>
<path fill="none" stroke="black" d="M559.631,-13.5C559.631,-7.5 565.631,-1.5 571.631,-1.5"/>
<text text-anchor="middle" x="665.131" y="-194.9" font-family="Times Roman,serif" font-size="14.00">ContrainteObjectsController</text>
<polyline fill="none" stroke="black" points="559.631,-185.5 770.631,-185.5 "/>
<text text-anchor="start" x="567.631" y="-168.9" font-family="Times Roman,serif" font-size="14.00">create</text>
<text text-anchor="start" x="567.631" y="-150.9" font-family="Times Roman,serif" font-size="14.00">destroy</text>
<text text-anchor="start" x="567.631" y="-132.9" font-family="Times Roman,serif" font-size="14.00">edit</text>
<text text-anchor="start" x="567.631" y="-114.9" font-family="Times Roman,serif" font-size="14.00">index</text>
<text text-anchor="start" x="567.631" y="-96.9" font-family="Times Roman,serif" font-size="14.00">new</text>
<text text-anchor="start" x="567.631" y="-78.9" font-family="Times Roman,serif" font-size="14.00">show</text>
<text text-anchor="start" x="567.631" y="-60.9" font-family="Times Roman,serif" font-size="14.00">update</text>
<polyline fill="none" stroke="black" points="559.631,-51.5 770.631,-51.5 "/>
<polyline fill="none" stroke="black" points="559.631,-27.5 770.631,-27.5 "/>
<text text-anchor="start" x="567.631" y="-10.9" font-family="Times Roman,serif" font-size="14.00">_layout</text>
</g>
<!-- ImportManagersController -->
<g id="node5" class="node"><title>ImportManagersController</title>
<polyline fill="none" stroke="black" points="367.703,-743.008 541.703,-743.008 "/>
<path fill="none" stroke="black" d="M541.703,-743.008C547.703,-743.008 553.703,-749.008 553.703,-755.008"/>
<polyline fill="none" stroke="black" points="553.703,-755.008 553.703,-923.008 "/>
<path fill="none" stroke="black" d="M553.703,-923.008C553.703,-929.008 547.703,-935.008 541.703,-935.008"/>
<polyline fill="none" stroke="black" points="541.703,-935.008 367.703,-935.008 "/>
<path fill="none" stroke="black" d="M367.703,-935.008C361.703,-935.008 355.703,-929.008 355.703,-923.008"/>
<polyline fill="none" stroke="black" points="355.703,-923.008 355.703,-755.008 "/>
<path fill="none" stroke="black" d="M355.703,-755.008C355.703,-749.008 361.703,-743.008 367.703,-743.008"/>
<text text-anchor="middle" x="454.703" y="-918.408" font-family="Times Roman,serif" font-size="14.00">ImportManagersController</text>
<polyline fill="none" stroke="black" points="355.703,-909.008 553.703,-909.008 "/>
<text text-anchor="start" x="363.703" y="-892.408" font-family="Times Roman,serif" font-size="14.00">feedback</text>
<text text-anchor="start" x="363.703" y="-874.408" font-family="Times Roman,serif" font-size="14.00">index</text>
<text text-anchor="start" x="363.703" y="-856.408" font-family="Times Roman,serif" font-size="14.00">init_stack</text>
<text text-anchor="start" x="363.703" y="-838.408" font-family="Times Roman,serif" font-size="14.00">load_files</text>
<text text-anchor="start" x="363.703" y="-820.408" font-family="Times Roman,serif" font-size="14.00">load_next</text>
<polyline fill="none" stroke="black" points="355.703,-811.008 553.703,-811.008 "/>
<polyline fill="none" stroke="black" points="355.703,-787.008 553.703,-787.008 "/>
<text text-anchor="start" x="363.703" y="-770.408" font-family="Times Roman,serif" font-size="14.00">_layout</text>
<text text-anchor="start" x="363.703" y="-752.408" font-family="Times Roman,serif" font-size="14.00">set_vars</text>
</g>
<!-- ApplicationController -->
<g id="node6" class="node"><title>ApplicationController</title>
<polyline fill="none" stroke="black" points="285.006,-468.315 490.006,-468.315 "/>
<path fill="none" stroke="black" d="M490.006,-468.315C496.006,-468.315 502.006,-474.315 502.006,-480.315"/>
<polyline fill="none" stroke="black" points="502.006,-480.315 502.006,-558.315 "/>
<path fill="none" stroke="black" d="M502.006,-558.315C502.006,-564.315 496.006,-570.315 490.006,-570.315"/>
<polyline fill="none" stroke="black" points="490.006,-570.315 285.006,-570.315 "/>
<path fill="none" stroke="black" d="M285.006,-570.315C279.006,-570.315 273.006,-564.315 273.006,-558.315"/>
<polyline fill="none" stroke="black" points="273.006,-558.315 273.006,-480.315 "/>
<path fill="none" stroke="black" d="M273.006,-480.315C273.006,-474.315 279.006,-468.315 285.006,-468.315"/>
<text text-anchor="middle" x="387.506" y="-553.715" font-family="Times Roman,serif" font-size="14.00">ApplicationController</text>
<polyline fill="none" stroke="black" points="273.006,-544.315 502.006,-544.315 "/>
<text text-anchor="start" x="281.006" y="-527.715" font-family="Times Roman,serif" font-size="14.00">_one_time_conditions_valid_8?</text>
<polyline fill="none" stroke="black" points="273.006,-518.315 502.006,-518.315 "/>
<polyline fill="none" stroke="black" points="273.006,-494.315 502.006,-494.315 "/>
<text text-anchor="start" x="281.006" y="-477.715" font-family="Times Roman,serif" font-size="14.00">_layout</text>
</g>
<!-- ApplicationController&#45;&gt;CoursObjectsController -->
<g id="edge2" class="edge"><title>ApplicationController&#45;&gt;CoursObjectsController</title>
<path fill="none" stroke="black" d="M272.719,-498.274C244.586,-493.117 214.912,-487.677 188.257,-482.791"/>
</g>
<!-- ApplicationController&#45;&gt;CreatorsController -->
<g id="edge4" class="edge"><title>ApplicationController&#45;&gt;CreatorsController</title>
<path fill="none" stroke="black" d="M457.904,-570.439C494.957,-597.346 541.426,-631.092 584.02,-662.024"/>
</g>
<!-- ApplicationController&#45;&gt;ContrainteObjectsController -->
<g id="edge6" class="edge"><title>ApplicationController&#45;&gt;ContrainteObjectsController</title>
<path fill="none" stroke="black" d="M421.827,-468.282C464.697,-404.537 539.127,-293.863 594.407,-211.663"/>
</g>
<!-- ApplicationController&#45;&gt;ImportManagersController -->
<g id="edge8" class="edge"><title>ApplicationController&#45;&gt;ImportManagersController</title>
<path fill="none" stroke="black" d="M398.228,-570.325C407.955,-616.6 422.552,-686.05 434.47,-742.748"/>
</g>
<!-- EnsembleObjectsController -->
<g id="node7" class="node"><title>EnsembleObjectsController</title>
<polyline fill="none" stroke="black" points="34.3167,-672.449 213.317,-672.449 "/>
<path fill="none" stroke="black" d="M213.317,-672.449C219.317,-672.449 225.317,-678.449 225.317,-684.449"/>
<polyline fill="none" stroke="black" points="225.317,-684.449 225.317,-924.449 "/>
<path fill="none" stroke="black" d="M225.317,-924.449C225.317,-930.449 219.317,-936.449 213.317,-936.449"/>
<polyline fill="none" stroke="black" points="213.317,-936.449 34.3167,-936.449 "/>
<path fill="none" stroke="black" d="M34.3167,-936.449C28.3167,-936.449 22.3167,-930.449 22.3167,-924.449"/>
<polyline fill="none" stroke="black" points="22.3167,-924.449 22.3167,-684.449 "/>
<path fill="none" stroke="black" d="M22.3167,-684.449C22.3167,-678.449 28.3167,-672.449 34.3167,-672.449"/>
<text text-anchor="middle" x="123.817" y="-919.849" font-family="Times Roman,serif" font-size="14.00">EnsembleObjectsController</text>
<polyline fill="none" stroke="black" points="22.3167,-910.449 225.317,-910.449 "/>
<text text-anchor="start" x="30.3167" y="-893.849" font-family="Times Roman,serif" font-size="14.00">compaire</text>
<text text-anchor="start" x="30.3167" y="-875.849" font-family="Times Roman,serif" font-size="14.00">create</text>
<text text-anchor="start" x="30.3167" y="-857.849" font-family="Times Roman,serif" font-size="14.00">destroy</text>
<text text-anchor="start" x="30.3167" y="-839.849" font-family="Times Roman,serif" font-size="14.00">edit</text>
<text text-anchor="start" x="30.3167" y="-821.849" font-family="Times Roman,serif" font-size="14.00">index</text>
<text text-anchor="start" x="30.3167" y="-803.849" font-family="Times Roman,serif" font-size="14.00">new</text>
<text text-anchor="start" x="30.3167" y="-785.849" font-family="Times Roman,serif" font-size="14.00">restricted_index</text>
<text text-anchor="start" x="30.3167" y="-767.849" font-family="Times Roman,serif" font-size="14.00">show</text>
<text text-anchor="start" x="30.3167" y="-749.849" font-family="Times Roman,serif" font-size="14.00">update</text>
<polyline fill="none" stroke="black" points="22.3167,-740.449 225.317,-740.449 "/>
<polyline fill="none" stroke="black" points="22.3167,-716.449 225.317,-716.449 "/>
<text text-anchor="start" x="30.3167" y="-699.849" font-family="Times Roman,serif" font-size="14.00">_layout</text>
<text text-anchor="start" x="30.3167" y="-681.849" font-family="Times Roman,serif" font-size="14.00">build_tree_for</text>
</g>
<!-- ApplicationController&#45;&gt;EnsembleObjectsController -->
<g id="edge10" class="edge"><title>ApplicationController&#45;&gt;EnsembleObjectsController</title>
<path fill="none" stroke="black" d="M340.059,-570.621C308.18,-605.093 264.943,-651.846 225.509,-694.487"/>
</g>
<!-- CompositorsController -->
<g id="node8" class="node"><title>CompositorsController</title>
<polyline fill="none" stroke="black" points="13,-32.3025 188,-32.3025 "/>
<path fill="none" stroke="black" d="M188,-32.3025C194,-32.3025 200,-38.3025 200,-44.3025"/>
<polyline fill="none" stroke="black" points="200,-44.3025 200,-212.302 "/>
<path fill="none" stroke="black" d="M200,-212.302C200,-218.302 194,-224.302 188,-224.302"/>
<polyline fill="none" stroke="black" points="188,-224.302 13,-224.302 "/>
<path fill="none" stroke="black" d="M13,-224.302C7,-224.302 1,-218.302 1,-212.302"/>
<polyline fill="none" stroke="black" points="1,-212.302 1,-44.3025 "/>
<path fill="none" stroke="black" d="M1,-44.3025C1,-38.3025 7,-32.3025 13,-32.3025"/>
<text text-anchor="middle" x="100.5" y="-207.702" font-family="Times Roman,serif" font-size="14.00">CompositorsController</text>
<polyline fill="none" stroke="black" points="1,-198.302 200,-198.302 "/>
<text text-anchor="start" x="9" y="-181.702" font-family="Times Roman,serif" font-size="14.00">check</text>
<text text-anchor="start" x="9" y="-163.702" font-family="Times Roman,serif" font-size="14.00">index</text>
<text text-anchor="start" x="9" y="-145.702" font-family="Times Roman,serif" font-size="14.00">show</text>
<polyline fill="none" stroke="black" points="1,-136.302 200,-136.302 "/>
<polyline fill="none" stroke="black" points="1,-112.302 200,-112.302 "/>
<text text-anchor="start" x="9" y="-95.7025" font-family="Times Roman,serif" font-size="14.00">_layout</text>
<text text-anchor="start" x="9" y="-77.7025" font-family="Times Roman,serif" font-size="14.00">compute_sums_on_quadri</text>
<text text-anchor="start" x="9" y="-59.7025" font-family="Times Roman,serif" font-size="14.00">select_nodes</text>
<text text-anchor="start" x="9" y="-41.7025" font-family="Times Roman,serif" font-size="14.00">select_parents_recursively</text>
</g>
<!-- ApplicationController&#45;&gt;CompositorsController -->
<g id="edge12" class="edge"><title>ApplicationController&#45;&gt;CompositorsController</title>
<path fill="none" stroke="black" d="M349.985,-468.197C304.705,-406.509 227.618,-301.486 171.089,-224.471"/>
</g>
<!-- PagesController -->
<g id="node9" class="node"><title>PagesController</title>
<polyline fill="none" stroke="black" points="613.671,-359.4 714.671,-359.4 "/>
<path fill="none" stroke="black" d="M714.671,-359.4C720.671,-359.4 726.671,-365.4 726.671,-371.4"/>
<polyline fill="none" stroke="black" points="726.671,-371.4 726.671,-449.4 "/>
<path fill="none" stroke="black" d="M726.671,-449.4C726.671,-455.4 720.671,-461.4 714.671,-461.4"/>
<polyline fill="none" stroke="black" points="714.671,-461.4 613.671,-461.4 "/>
<path fill="none" stroke="black" d="M613.671,-461.4C607.671,-461.4 601.671,-455.4 601.671,-449.4"/>
<polyline fill="none" stroke="black" points="601.671,-449.4 601.671,-371.4 "/>
<path fill="none" stroke="black" d="M601.671,-371.4C601.671,-365.4 607.671,-359.4 613.671,-359.4"/>
<text text-anchor="middle" x="664.171" y="-444.8" font-family="Times Roman,serif" font-size="14.00">PagesController</text>
<polyline fill="none" stroke="black" points="601.671,-435.4 726.671,-435.4 "/>
<text text-anchor="start" x="609.671" y="-418.8" font-family="Times Roman,serif" font-size="14.00">home</text>
<polyline fill="none" stroke="black" points="601.671,-409.4 726.671,-409.4 "/>
<polyline fill="none" stroke="black" points="601.671,-385.4 726.671,-385.4 "/>
<text text-anchor="start" x="609.671" y="-368.8" font-family="Times Roman,serif" font-size="14.00">_layout</text>
</g>
<!-- ApplicationController&#45;&gt;PagesController -->
<g id="edge14" class="edge"><title>ApplicationController&#45;&gt;PagesController</title>
<path fill="none" stroke="black" d="M502.033,-474.229C536.076,-460.828 572.101,-446.645 601.526,-435.062"/>
</g>
<!-- DiplomeObjectsController -->
<g id="node10" class="node"><title>DiplomeObjectsController</title>
<polyline fill="none" stroke="black" points="292.892,-53.781 461.892,-53.781 "/>
<path fill="none" stroke="black" d="M461.892,-53.781C467.892,-53.781 473.892,-59.781 473.892,-65.781"/>
<polyline fill="none" stroke="black" points="473.892,-65.781 473.892,-251.781 "/>
<path fill="none" stroke="black" d="M473.892,-251.781C473.892,-257.781 467.892,-263.781 461.892,-263.781"/>
<polyline fill="none" stroke="black" points="461.892,-263.781 292.892,-263.781 "/>
<path fill="none" stroke="black" d="M292.892,-263.781C286.892,-263.781 280.892,-257.781 280.892,-251.781"/>
<polyline fill="none" stroke="black" points="280.892,-251.781 280.892,-65.781 "/>
<path fill="none" stroke="black" d="M280.892,-65.781C280.892,-59.781 286.892,-53.781 292.892,-53.781"/>
<text text-anchor="middle" x="377.392" y="-247.181" font-family="Times Roman,serif" font-size="14.00">DiplomeObjectsController</text>
<polyline fill="none" stroke="black" points="280.892,-237.781 473.892,-237.781 "/>
<text text-anchor="start" x="288.892" y="-221.181" font-family="Times Roman,serif" font-size="14.00">create</text>
<text text-anchor="start" x="288.892" y="-203.181" font-family="Times Roman,serif" font-size="14.00">destroy</text>
<text text-anchor="start" x="288.892" y="-185.181" font-family="Times Roman,serif" font-size="14.00">edit</text>
<text text-anchor="start" x="288.892" y="-167.181" font-family="Times Roman,serif" font-size="14.00">index</text>
<text text-anchor="start" x="288.892" y="-149.181" font-family="Times Roman,serif" font-size="14.00">new</text>
<text text-anchor="start" x="288.892" y="-131.181" font-family="Times Roman,serif" font-size="14.00">show</text>
<text text-anchor="start" x="288.892" y="-113.181" font-family="Times Roman,serif" font-size="14.00">update</text>
<polyline fill="none" stroke="black" points="280.892,-103.781 473.892,-103.781 "/>
<polyline fill="none" stroke="black" points="280.892,-79.781 473.892,-79.781 "/>
<text text-anchor="start" x="288.892" y="-63.181" font-family="Times Roman,serif" font-size="14.00">_layout</text>
</g>
<!-- ApplicationController&#45;&gt;DiplomeObjectsController -->
<g id="edge16" class="edge"><title>ApplicationController&#45;&gt;DiplomeObjectsController</title>
<path fill="none" stroke="black" d="M386.068,-468.043C384.584,-415.163 382.228,-331.187 380.346,-264.077"/>
</g>
</g>
</svg>
