<?xml version="1.0" encoding="UTF-8" standalone="no"?>
<!DOCTYPE svg PUBLIC "-//W3C//DTD SVG 1.1//EN"
 "http://www.w3.org/Graphics/SVG/1.1/DTD/svg11.dtd">
<!-- Generated by graphviz version 2.26.3 (20100126.1600)
 -->
<!-- Title: models_diagram Pages: 1 -->
<svg width="900pt" height="512pt"
 viewBox="0.00 0.00 900.00 512.00" xmlns="http://www.w3.org/2000/svg" xmlns:xlink="http://www.w3.org/1999/xlink">
<g id="graph1" class="graph" transform="scale(1 1) rotate(0) translate(4 508)">
<title>models_diagram</title>
<polygon fill="white" stroke="white" points="-4,5 -4,-508 897,-508 897,5 -4,5"/>
<!-- _diagram_info -->
<g id="node1" class="node"><title>_diagram_info</title>
<text text-anchor="start" x="112" y="-399.8" font-family="Times Roman,serif" font-size="13.00">Models diagram</text>
<text text-anchor="start" x="112" y="-382.8" font-family="Times Roman,serif" font-size="13.00">Date: May 23 2013 &#45; 15:17</text>
<text text-anchor="start" x="112" y="-365.8" font-family="Times Roman,serif" font-size="13.00">Migration version: 20121106110101</text>
<text text-anchor="start" x="112" y="-348.8" font-family="Times Roman,serif" font-size="13.00">Generated by RailRoady 1.1.0</text>
<text text-anchor="start" x="112" y="-331.8" font-family="Times Roman,serif" font-size="13.00">http://railroady.prestonlee.com</text>
</g>
<!-- CoursContenu -->
<g id="node2" class="node"><title>CoursContenu</title>
<polyline fill="none" stroke="black" points="11.5,-1 152.5,-1 "/>
<path fill="none" stroke="black" d="M152.5,-1C158.5,-1 164.5,-7 164.5,-13"/>
<polyline fill="none" stroke="black" points="164.5,-13 164.5,-167 "/>
<path fill="none" stroke="black" d="M164.5,-167C164.5,-173 158.5,-179 152.5,-179"/>
<polyline fill="none" stroke="black" points="152.5,-179 11.5,-179 "/>
<path fill="none" stroke="black" d="M11.5,-179C5.5,-179 -0.5,-173 -0.5,-167"/>
<polyline fill="none" stroke="black" points="-0.5,-167 -0.5,-13 "/>
<path fill="none" stroke="black" d="M-0.5,-13C-0.5,-7 5.5,-1 11.5,-1"/>
<text text-anchor="middle" x="82" y="-162.4" font-family="Times Roman,serif" font-size="14.00">CoursContenu</text>
<polyline fill="none" stroke="black" points="-0.5,-153 164.5,-153 "/>
<text text-anchor="start" x="7.5" y="-136.4" font-family="Times Roman,serif" font-size="14.00">id :integer</text>
<text text-anchor="start" x="7.5" y="-118.4" font-family="Times Roman,serif" font-size="14.00">pmodule_id :integer</text>
<text text-anchor="start" x="7.5" y="-100.4" font-family="Times Roman,serif" font-size="14.00">dureeCours :float</text>
<text text-anchor="start" x="7.5" y="-82.4" font-family="Times Roman,serif" font-size="14.00">dureeTP :float</text>
<text text-anchor="start" x="7.5" y="-64.4" font-family="Times Roman,serif" font-size="14.00">quadri :integer</text>
<text text-anchor="start" x="7.5" y="-46.4" font-family="Times Roman,serif" font-size="14.00">professeur :string</text>
<text text-anchor="start" x="7.5" y="-28.4" font-family="Times Roman,serif" font-size="14.00">created_at :datetime</text>
<text text-anchor="start" x="7.5" y="-10.4" font-family="Times Roman,serif" font-size="14.00">updated_at :datetime</text>
</g>
<!-- Diplome -->
<g id="node3" class="node"><title>Diplome</title>
<polyline fill="none" stroke="black" points="193.5,-10 334.5,-10 "/>
<path fill="none" stroke="black" d="M334.5,-10C340.5,-10 346.5,-16 346.5,-22"/>
<polyline fill="none" stroke="black" points="346.5,-22 346.5,-158 "/>
<path fill="none" stroke="black" d="M346.5,-158C346.5,-164 340.5,-170 334.5,-170"/>
<polyline fill="none" stroke="black" points="334.5,-170 193.5,-170 "/>
<path fill="none" stroke="black" d="M193.5,-170C187.5,-170 181.5,-164 181.5,-158"/>
<polyline fill="none" stroke="black" points="181.5,-158 181.5,-22 "/>
<path fill="none" stroke="black" d="M181.5,-22C181.5,-16 187.5,-10 193.5,-10"/>
<text text-anchor="middle" x="264" y="-153.4" font-family="Times Roman,serif" font-size="14.00">Diplome</text>
<polyline fill="none" stroke="black" points="181.5,-144 346.5,-144 "/>
<text text-anchor="start" x="189.5" y="-127.4" font-family="Times Roman,serif" font-size="14.00">id :integer</text>
<text text-anchor="start" x="189.5" y="-109.4" font-family="Times Roman,serif" font-size="14.00">sigle :string</text>
<text text-anchor="start" x="189.5" y="-91.4" font-family="Times Roman,serif" font-size="14.00">cycle :string</text>
<text text-anchor="start" x="189.5" y="-73.4" font-family="Times Roman,serif" font-size="14.00">facSigle :string</text>
<text text-anchor="start" x="189.5" y="-55.4" font-family="Times Roman,serif" font-size="14.00">pmodule_id :integer</text>
<text text-anchor="start" x="189.5" y="-37.4" font-family="Times Roman,serif" font-size="14.00">created_at :datetime</text>
<text text-anchor="start" x="189.5" y="-19.4" font-family="Times Roman,serif" font-size="14.00">updated_at :datetime</text>
</g>
<!-- Sigle -->
<g id="node4" class="node"><title>Sigle</title>
<polyline fill="none" stroke="black" points="375.5,-28 516.5,-28 "/>
<path fill="none" stroke="black" d="M516.5,-28C522.5,-28 528.5,-34 528.5,-40"/>
<polyline fill="none" stroke="black" points="528.5,-40 528.5,-140 "/>
<path fill="none" stroke="black" d="M528.5,-140C528.5,-146 522.5,-152 516.5,-152"/>
<polyline fill="none" stroke="black" points="516.5,-152 375.5,-152 "/>
<path fill="none" stroke="black" d="M375.5,-152C369.5,-152 363.5,-146 363.5,-140"/>
<polyline fill="none" stroke="black" points="363.5,-140 363.5,-40 "/>
<path fill="none" stroke="black" d="M363.5,-40C363.5,-34 369.5,-28 375.5,-28"/>
<text text-anchor="middle" x="446" y="-135.4" font-family="Times Roman,serif" font-size="14.00">Sigle</text>
<polyline fill="none" stroke="black" points="363.5,-126 528.5,-126 "/>
<text text-anchor="start" x="371.5" y="-109.4" font-family="Times Roman,serif" font-size="14.00">id :integer</text>
<text text-anchor="start" x="371.5" y="-91.4" font-family="Times Roman,serif" font-size="14.00">pmodule_id :integer</text>
<text text-anchor="start" x="371.5" y="-73.4" font-family="Times Roman,serif" font-size="14.00">sigle :string</text>
<text text-anchor="start" x="371.5" y="-55.4" font-family="Times Roman,serif" font-size="14.00">created_at :datetime</text>
<text text-anchor="start" x="371.5" y="-37.4" font-family="Times Roman,serif" font-size="14.00">updated_at :datetime</text>
</g>
<!-- Pmodule -->
<g id="node5" class="node"><title>Pmodule</title>
<polyline fill="none" stroke="black" points="383.5,-235 556.5,-235 "/>
<path fill="none" stroke="black" d="M556.5,-235C562.5,-235 568.5,-241 568.5,-247"/>
<polyline fill="none" stroke="black" points="568.5,-247 568.5,-491 "/>
<path fill="none" stroke="black" d="M568.5,-491C568.5,-497 562.5,-503 556.5,-503"/>
<polyline fill="none" stroke="black" points="556.5,-503 383.5,-503 "/>
<path fill="none" stroke="black" d="M383.5,-503C377.5,-503 371.5,-497 371.5,-491"/>
<polyline fill="none" stroke="black" points="371.5,-491 371.5,-247 "/>
<path fill="none" stroke="black" d="M371.5,-247C371.5,-241 377.5,-235 383.5,-235"/>
<text text-anchor="middle" x="470" y="-486.4" font-family="Times Roman,serif" font-size="14.00">Pmodule</text>
<polyline fill="none" stroke="black" points="371.5,-477 568.5,-477 "/>
<text text-anchor="start" x="379.5" y="-460.4" font-family="Times Roman,serif" font-size="14.00">id :integer</text>
<text text-anchor="start" x="379.5" y="-442.4" font-family="Times Roman,serif" font-size="14.00">mtype :string</text>
<text text-anchor="start" x="379.5" y="-424.4" font-family="Times Roman,serif" font-size="14.00">creditsMin :integer</text>
<text text-anchor="start" x="379.5" y="-406.4" font-family="Times Roman,serif" font-size="14.00">creditsMax :integer</text>
<text text-anchor="start" x="379.5" y="-388.4" font-family="Times Roman,serif" font-size="14.00">intitule :text</text>
<text text-anchor="start" x="379.5" y="-370.4" font-family="Times Roman,serif" font-size="14.00">langue :string</text>
<text text-anchor="start" x="379.5" y="-352.4" font-family="Times Roman,serif" font-size="14.00">dptCharge :string</text>
<text text-anchor="start" x="379.5" y="-334.4" font-family="Times Roman,serif" font-size="14.00">commentaire :text</text>
<text text-anchor="start" x="379.5" y="-316.4" font-family="Times Roman,serif" font-size="14.00">validite :integer</text>
<text text-anchor="start" x="379.5" y="-298.4" font-family="Times Roman,serif" font-size="14.00">import_commentaire :text</text>
<text text-anchor="start" x="379.5" y="-280.4" font-family="Times Roman,serif" font-size="14.00">status :string</text>
<text text-anchor="start" x="379.5" y="-262.4" font-family="Times Roman,serif" font-size="14.00">created_at :datetime</text>
<text text-anchor="start" x="379.5" y="-244.4" font-family="Times Roman,serif" font-size="14.00">updated_at :datetime</text>
</g>
<!-- Pmodule&#45;&gt;CoursContenu -->
<g id="edge2" class="edge"><title>Pmodule&#45;&gt;CoursContenu</title>
<path fill="none" stroke="#00dbb2" d="M364.871,-235.268C364.249,-234.84 363.626,-234.418 363,-234 289.992,-185.249 248.816,-224.258 173,-180 172.565,-179.746 172.131,-179.49 171.697,-179.231"/>
<ellipse fill="none" stroke="#00dbb2" cx="368.212" cy="-237.678" rx="4.00002" ry="4.00002"/>
<ellipse fill="#00dbb2" stroke="#00dbb2" cx="168.111" cy="-176.966" rx="4.00002" ry="4.00002"/>
</g>
<!-- Pmodule&#45;&gt;Diplome -->
<g id="edge8" class="edge"><title>Pmodule&#45;&gt;Diplome</title>
<path fill="none" stroke="#69c2b9" d="M366.411,-228.702C353.786,-211.603 341.173,-194.52 329.33,-178.481"/>
<ellipse fill="none" stroke="#69c2b9" cx="368.848" cy="-232.002" rx="4.00002" ry="4.00002"/>
<polygon fill="#69c2b9" stroke="#69c2b9" points="329.151,-178.239 326.832,-167.521 326.181,-174.216 323.211,-170.194 323.211,-170.194 323.211,-170.194 326.181,-174.216 319.591,-172.867 329.151,-178.239 329.151,-178.239"/>
</g>
<!-- Pmodule&#45;&gt;Sigle -->
<g id="edge12" class="edge"><title>Pmodule&#45;&gt;Sigle</title>
<path fill="none" stroke="#34726a" d="M457.757,-226.681C455.838,-204.37 453.927,-182.155 452.221,-162.32"/>
<ellipse fill="none" stroke="#34726a" cx="458.114" cy="-230.827" rx="4" ry="4"/>
<polygon fill="#34726a" stroke="#34726a" points="452.206,-162.14 455.832,-151.791 451.777,-157.159 451.349,-152.177 451.349,-152.177 451.349,-152.177 451.777,-157.159 446.865,-152.563 452.206,-162.14 452.206,-162.14"/>
</g>
<!-- EnsembleContenu -->
<g id="node6" class="node"><title>EnsembleContenu</title>
<polyline fill="none" stroke="black" points="557.5,-10 698.5,-10 "/>
<path fill="none" stroke="black" d="M698.5,-10C704.5,-10 710.5,-16 710.5,-22"/>
<polyline fill="none" stroke="black" points="710.5,-22 710.5,-158 "/>
<path fill="none" stroke="black" d="M710.5,-158C710.5,-164 704.5,-170 698.5,-170"/>
<polyline fill="none" stroke="black" points="698.5,-170 557.5,-170 "/>
<path fill="none" stroke="black" d="M557.5,-170C551.5,-170 545.5,-164 545.5,-158"/>
<polyline fill="none" stroke="black" points="545.5,-158 545.5,-22 "/>
<path fill="none" stroke="black" d="M545.5,-22C545.5,-16 551.5,-10 557.5,-10"/>
<text text-anchor="middle" x="628" y="-153.4" font-family="Times Roman,serif" font-size="14.00">EnsembleContenu</text>
<polyline fill="none" stroke="black" points="545.5,-144 710.5,-144 "/>
<text text-anchor="start" x="553.5" y="-127.4" font-family="Times Roman,serif" font-size="14.00">id :integer</text>
<text text-anchor="start" x="553.5" y="-109.4" font-family="Times Roman,serif" font-size="14.00">pmodule_id :integer</text>
<text text-anchor="start" x="553.5" y="-91.4" font-family="Times Roman,serif" font-size="14.00">contenu_id :integer</text>
<text text-anchor="start" x="553.5" y="-73.4" font-family="Times Roman,serif" font-size="14.00">annee :string</text>
<text text-anchor="start" x="553.5" y="-55.4" font-family="Times Roman,serif" font-size="14.00">obligatoire :boolean</text>
<text text-anchor="start" x="553.5" y="-37.4" font-family="Times Roman,serif" font-size="14.00">created_at :datetime</text>
<text text-anchor="start" x="553.5" y="-19.4" font-family="Times Roman,serif" font-size="14.00">updated_at :datetime</text>
</g>
<!-- Pmodule&#45;&gt;EnsembleContenu -->
<g id="edge4" class="edge"><title>Pmodule&#45;&gt;EnsembleContenu</title>
<path fill="none" stroke="#8c7b4e" d="M506.188,-227.216C510.61,-217.072 515.532,-207.22 521,-198 522.108,-196.132 529.723,-188.082 540.424,-177.153"/>
<ellipse fill="none" stroke="#8c7b4e" cx="504.608" cy="-230.963" rx="4.00002" ry="4.00002"/>
<polygon fill="#8c7b4e" stroke="#8c7b4e" points="540.443,-177.134 550.664,-173.161 543.949,-173.57 547.456,-170.005 547.456,-170.005 547.456,-170.005 543.949,-173.57 544.248,-166.85 540.443,-177.134 540.443,-177.134"/>
<text text-anchor="middle" x="556.5" y="-203.4" font-family="Times Roman,serif" font-size="14.00">conteneur</text>
</g>
<!-- Pmodule&#45;&gt;EnsembleContenu -->
<g id="edge6" class="edge"><title>Pmodule&#45;&gt;EnsembleContenu</title>
<path fill="none" stroke="#9703f6" d="M573.213,-248.035C580.073,-237.522 586.448,-226.777 592,-216 597.853,-204.638 602.872,-192.195 607.139,-179.692"/>
<ellipse fill="none" stroke="#9703f6" cx="570.855" cy="-251.578" rx="4.00002" ry="4.00002"/>
<polygon fill="#9703f6" stroke="#9703f6" points="607.155,-179.643 614.535,-171.533 608.706,-174.89 610.257,-170.137 610.257,-170.137 610.257,-170.137 608.706,-174.89 605.98,-168.741 607.155,-179.643 607.155,-179.643"/>
<text text-anchor="middle" x="627.5" y="-203.4" font-family="Times Roman,serif" font-size="14.00">contenu</text>
</g>
<!-- Contrainte -->
<g id="node7" class="node"><title>Contrainte</title>
<polyline fill="none" stroke="black" points="739.5,-19 880.5,-19 "/>
<path fill="none" stroke="black" d="M880.5,-19C886.5,-19 892.5,-25 892.5,-31"/>
<polyline fill="none" stroke="black" points="892.5,-31 892.5,-149 "/>
<path fill="none" stroke="black" d="M892.5,-149C892.5,-155 886.5,-161 880.5,-161"/>
<polyline fill="none" stroke="black" points="880.5,-161 739.5,-161 "/>
<path fill="none" stroke="black" d="M739.5,-161C733.5,-161 727.5,-155 727.5,-149"/>
<polyline fill="none" stroke="black" points="727.5,-149 727.5,-31 "/>
<path fill="none" stroke="black" d="M727.5,-31C727.5,-25 733.5,-19 739.5,-19"/>
<text text-anchor="middle" x="810" y="-144.4" font-family="Times Roman,serif" font-size="14.00">Contrainte</text>
<polyline fill="none" stroke="black" points="727.5,-135 892.5,-135 "/>
<text text-anchor="start" x="735.5" y="-118.4" font-family="Times Roman,serif" font-size="14.00">id :integer</text>
<text text-anchor="start" x="735.5" y="-100.4" font-family="Times Roman,serif" font-size="14.00">pmodule_id :integer</text>
<text text-anchor="start" x="735.5" y="-82.4" font-family="Times Roman,serif" font-size="14.00">cond :string</text>
<text text-anchor="start" x="735.5" y="-64.4" font-family="Times Roman,serif" font-size="14.00">effet :string</text>
<text text-anchor="start" x="735.5" y="-46.4" font-family="Times Roman,serif" font-size="14.00">created_at :datetime</text>
<text text-anchor="start" x="735.5" y="-28.4" font-family="Times Roman,serif" font-size="14.00">updated_at :datetime</text>
</g>
<!-- Pmodule&#45;&gt;Contrainte -->
<g id="edge10" class="edge"><title>Pmodule&#45;&gt;Contrainte</title>
<path fill="none" stroke="#8a15ae" d="M575.313,-293.813C620.601,-260.28 673.479,-219.49 719,-180 723.409,-176.176 727.87,-172.188 732.328,-168.112"/>
<ellipse fill="none" stroke="#8a15ae" cx="571.905" cy="-296.33" rx="4.00002" ry="4.00002"/>
<polygon fill="#8a15ae" stroke="#8a15ae" points="732.478,-167.974 742.873,-164.484 736.147,-164.578 739.817,-161.182 739.817,-161.182 739.817,-161.182 736.147,-164.578 736.76,-157.879 732.478,-167.974 732.478,-167.974"/>
</g>
</g>
</svg>
