<?xml version="1.0" encoding="UTF-8" standalone="no"?>
<!DOCTYPE svg PUBLIC "-//W3C//DTD SVG 1.1//EN"
 "http://www.w3.org/Graphics/SVG/1.1/DTD/svg11.dtd">
<!-- Generated by graphviz version 2.26.3 (20100126.1600)
 -->
<!-- Title: models_diagram Pages: 1 -->
<svg width="744pt" height="194pt"
 viewBox="0.00 0.00 744.00 194.00" xmlns="http://www.w3.org/2000/svg" xmlns:xlink="http://www.w3.org/1999/xlink">
<g id="graph1" class="graph" transform="scale(1 1) rotate(0) translate(4 190)">
<title>models_diagram</title>
<polygon fill="white" stroke="white" points="-4,5 -4,-190 741,-190 741,5 -4,5"/>
<!-- _diagram_info -->
<g id="node1" class="node"><title>_diagram_info</title>
<text text-anchor="start" x="44" y="-169.8" font-family="Times Roman,serif" font-size="13.00">Models diagram</text>
<text text-anchor="start" x="44" y="-152.8" font-family="Times Roman,serif" font-size="13.00">Date: May 23 2013 &#45; 15:17</text>
<text text-anchor="start" x="44" y="-135.8" font-family="Times Roman,serif" font-size="13.00">Migration version: 20121106110101</text>
<text text-anchor="start" x="44" y="-118.8" font-family="Times Roman,serif" font-size="13.00">Generated by RailRoady 1.1.0</text>
<text text-anchor="start" x="44" y="-101.8" font-family="Times Roman,serif" font-size="13.00">http://railroady.prestonlee.com</text>
</g>
<!-- CoursContenu -->
<g id="node2" class="node"><title>CoursContenu</title>
<ellipse fill="none" stroke="black" cx="82" cy="-19" rx="82.0244" ry="18.3848"/>
<text text-anchor="middle" x="82" y="-15.4" font-family="Times Roman,serif" font-size="14.00">CoursContenu</text>
</g>
<!-- Diplome -->
<g id="node3" class="node"><title>Diplome</title>
<ellipse fill="none" stroke="black" cx="233" cy="-19" rx="51.1176" ry="18.3848"/>
<text text-anchor="middle" x="233" y="-15.4" font-family="Times Roman,serif" font-size="14.00">Diplome</text>
</g>
<!-- Sigle -->
<g id="node4" class="node"><title>Sigle</title>
<ellipse fill="none" stroke="black" cx="337" cy="-19" rx="34.8574" ry="18.3848"/>
<text text-anchor="middle" x="337" y="-15.4" font-family="Times Roman,serif" font-size="14.00">Sigle</text>
</g>
<!-- Pmodule -->
<g id="node5" class="node"><title>Pmodule</title>
<ellipse fill="none" stroke="black" cx="357" cy="-139" rx="53.2379" ry="18.3848"/>
<text text-anchor="middle" x="357" y="-135.4" font-family="Times Roman,serif" font-size="14.00">Pmodule</text>
</g>
<!-- Pmodule&#45;&gt;CoursContenu -->
<g id="edge2" class="edge"><title>Pmodule&#45;&gt;CoursContenu</title>
<path fill="none" stroke="#d42656" d="M331.102,-116.434C320.439,-107.946 307.637,-98.7308 295,-92 247.254,-66.5691 188.886,-47.3007 145.332,-34.9636"/>
<ellipse fill="none" stroke="#d42656" cx="334.342" cy="-119.071" rx="4.00002" ry="4.00002"/>
<ellipse fill="#d42656" stroke="#d42656" cx="141.23" cy="-33.8174" rx="4.00001" ry="4.00001"/>
</g>
<!-- Pmodule&#45;&gt;Diplome -->
<g id="edge8" class="edge"><title>Pmodule&#45;&gt;Diplome</title>
<path fill="none" stroke="#5cca02" d="M333.158,-115.927C311.706,-95.1675 280.284,-64.7583 258.374,-43.5551"/>
<ellipse fill="none" stroke="#5cca02" cx="336.095" cy="-118.769" rx="4.00002" ry="4.00002"/>
<polygon fill="#5cca02" stroke="#5cca02" points="258.238,-43.4243 254.182,-33.2364 254.645,-39.9472 251.052,-36.4701 251.052,-36.4701 251.052,-36.4701 254.645,-39.9472 247.923,-39.7038 258.238,-43.4243 258.238,-43.4243"/>
</g>
<!-- Pmodule&#45;&gt;Sigle -->
<g id="edge12" class="edge"><title>Pmodule&#45;&gt;Sigle</title>
<path fill="none" stroke="#03f116" d="M352.555,-112.329C349.354,-93.1241 345.041,-67.2473 341.769,-47.6124"/>
<ellipse fill="none" stroke="#03f116" cx="353.261" cy="-116.567" rx="4.00001" ry="4.00001"/>
<polygon fill="#03f116" stroke="#03f116" points="341.762,-47.5697 344.556,-36.9659 340.94,-42.6377 340.118,-37.7057 340.118,-37.7057 340.118,-37.7057 340.94,-42.6377 335.679,-38.4456 341.762,-47.5697 341.762,-47.5697"/>
</g>
<!-- EnsembleContenu -->
<g id="node6" class="node"><title>EnsembleContenu</title>
<ellipse fill="none" stroke="black" cx="490" cy="-19" rx="99.9096" ry="18.3848"/>
<text text-anchor="middle" x="490" y="-15.4" font-family="Times Roman,serif" font-size="14.00">EnsembleContenu</text>
</g>
<!-- Pmodule&#45;&gt;EnsembleContenu -->
<g id="edge4" class="edge"><title>Pmodule&#45;&gt;EnsembleContenu</title>
<path fill="none" stroke="#9640cc" d="M361.654,-112.512C366.099,-94.4387 374.508,-71.1239 390,-56 397.809,-48.3767 407.324,-42.3022 417.346,-37.4676"/>
<ellipse fill="none" stroke="#9640cc" cx="360.758" cy="-116.496" rx="4.00001" ry="4.00001"/>
<polygon fill="#9640cc" stroke="#9640cc" points="417.506,-37.3974 428.472,-37.4858 422.082,-35.3824 426.658,-33.3674 426.658,-33.3674 426.658,-33.3674 422.082,-35.3824 424.845,-29.249 417.506,-37.3974 417.506,-37.3974"/>
<text text-anchor="middle" x="425.5" y="-61.4" font-family="Times Roman,serif" font-size="14.00">conteneur</text>
</g>
<!-- Pmodule&#45;&gt;EnsembleContenu -->
<g id="edge6" class="edge"><title>Pmodule&#45;&gt;EnsembleContenu</title>
<path fill="none" stroke="#28a232" d="M396.93,-120.496C417.929,-109.283 442.979,-93.3943 461,-74 468.253,-66.1941 474.225,-56.2306 478.824,-46.934"/>
<ellipse fill="none" stroke="#28a232" cx="393.237" cy="-122.418" rx="4.00002" ry="4.00002"/>
<polygon fill="#28a232" stroke="#28a232" points="478.937,-46.6898 487.205,-39.487 481.027,-42.1478 483.117,-37.6057 483.117,-37.6057 483.117,-37.6057 481.027,-42.1478 479.029,-35.7244 478.937,-46.6898 478.937,-46.6898"/>
<text text-anchor="middle" x="501.5" y="-61.4" font-family="Times Roman,serif" font-size="14.00">contenu</text>
</g>
<!-- Contrainte -->
<g id="node7" class="node"><title>Contrainte</title>
<ellipse fill="none" stroke="black" cx="672" cy="-19" rx="63.8479" ry="18.3848"/>
<text text-anchor="middle" x="672" y="-15.4" font-family="Times Roman,serif" font-size="14.00">Contrainte</text>
</g>
<!-- Pmodule&#45;&gt;Contrainte -->
<g id="edge10" class="edge"><title>Pmodule&#45;&gt;Contrainte</title>
<path fill="none" stroke="#70a513" d="M401.919,-122.888C437.772,-109.935 489.234,-91.1367 534,-74 564.569,-62.2978 598.746,-48.6809 625.439,-37.9238"/>
<ellipse fill="none" stroke="#70a513" cx="397.824" cy="-124.365" rx="4.00001" ry="4.00001"/>
<polygon fill="#70a513" stroke="#70a513" points="625.642,-37.8421 636.599,-38.2717 630.278,-35.9705 634.915,-34.0989 634.915,-34.0989 634.915,-34.0989 630.278,-35.9705 633.231,-29.926 625.642,-37.8421 625.642,-37.8421"/>
</g>
</g>
</svg>
